<?xml version="1.0" encoding="utf-8"?>
<!-- Generator: Adobe Illustrator 16.0.0, SVG Export Plug-In . SVG Version: 6.00 Build 0)  -->
<!DOCTYPE svg PUBLIC "-//W3C//DTD SVG 1.1//EN" "http://www.w3.org/Graphics/SVG/1.1/DTD/svg11.dtd">
<svg version="1.1" id="Layer_1" xmlns="http://www.w3.org/2000/svg" xmlns:xlink="http://www.w3.org/1999/xlink" x="0px" y="0px"
	 width="774px" height="748.971px" viewBox="225 21.515 774 748.971" enable-background="new 225 21.515 774 748.971"
	 xml:space="preserve">
<g display="none">
	<g display="inline">
		<path fill="#FF2B06" d="M89.931,516.396l-7.567-10.905h7.211l4.05,6.009l4.006-6.009h6.988l-7.567,10.771l8.501,12.24h-7.21
			l-4.807-7.255l-4.807,7.255h-7.077L89.931,516.396z"/>
		<path d="M135.507,514.882h-22.478v-4.763h22.478V514.882z M135.507,524.407h-22.478v-4.764h22.478V524.407z"/>
		<path d="M152.73,501.93h-6.32v-5.208h6.32V501.93z M146.41,505.49h6.32v23.012h-6.32V505.49z"/>
		<path d="M156.824,505.49h6.009v3.205h0.133c1.603-2.582,4.362-3.828,7.033-3.828c6.721,0,8.412,3.783,8.412,9.479v14.154h-6.32
			v-12.997c0-3.783-1.113-5.652-4.05-5.652c-3.427,0-4.896,1.913-4.896,6.588v12.063h-6.321V505.49z"/>
		<path d="M198.75,525.564h-0.089c-1.469,2.491-4.05,3.561-6.988,3.561c-6.943,0-10.326-5.965-10.326-12.329
			c0-6.187,3.427-11.929,10.193-11.929c2.715,0,5.386,1.157,6.854,3.428h-0.044h0.089v-11.573h6.32v31.78h-6.009V525.564
			L198.75,525.564z M193.231,509.63c-4.14,0-5.564,3.562-5.564,7.345c0,3.604,1.647,7.389,5.564,7.389
			c4.184,0,5.43-3.649,5.43-7.434C198.662,513.19,197.326,509.63,193.231,509.63z"/>
		<path d="M213.837,518.531c0.178,4.006,2.136,5.831,5.653,5.831c2.537,0,4.584-1.559,4.985-2.981h5.564
			c-1.781,5.43-5.564,7.744-10.771,7.744c-7.255,0-11.75-4.984-11.75-12.106c0-6.898,4.762-12.15,11.75-12.15
			c7.833,0,11.617,6.588,11.172,13.664L213.837,518.531L213.837,518.531z M224.119,514.525c-0.579-3.204-1.958-4.896-5.03-4.896
			c-4.006,0-5.163,3.116-5.252,4.896H224.119z"/>
		<path d="M233.286,505.49h6.009v2.938h0.089c1.513-2.446,4.006-3.561,6.854-3.561c7.21,0,10.46,5.831,10.46,12.373
			c0,6.143-3.383,11.885-10.104,11.885c-2.76,0-5.386-1.201-6.899-3.472h-0.089v10.948h-6.321L233.286,505.49L233.286,505.49z
			 M250.378,517.063c0-3.648-1.469-7.433-5.519-7.433c-4.139,0-5.475,3.694-5.475,7.433c0,3.739,1.424,7.301,5.519,7.301
			C249.043,524.362,250.378,520.802,250.378,517.063z"/>
		<path d="M264.797,518.531c0.178,4.006,2.136,5.831,5.653,5.831c2.537,0,4.584-1.559,4.985-2.981h5.564
			c-1.781,5.43-5.564,7.744-10.771,7.744c-7.255,0-11.75-4.984-11.75-12.106c0-6.898,4.762-12.15,11.75-12.15
			c7.833,0,11.617,6.588,11.172,13.664L264.797,518.531L264.797,518.531z M275.079,514.525c-0.579-3.204-1.958-4.896-5.03-4.896
			c-4.006,0-5.163,3.116-5.252,4.896H275.079z"/>
		<path d="M284.246,505.49h6.009v3.205h0.133c1.603-2.582,4.362-3.828,7.033-3.828c6.721,0,8.412,3.783,8.412,9.479v14.154h-6.32
			v-12.997c0-3.783-1.113-5.652-4.05-5.652c-3.427,0-4.896,1.913-4.896,6.588v12.063h-6.321V505.49L284.246,505.49z"/>
		<path d="M326.172,525.564h-0.089c-1.469,2.491-4.05,3.561-6.988,3.561c-6.942,0-10.326-5.965-10.326-12.329
			c0-6.187,3.428-11.929,10.193-11.929c2.715,0,5.386,1.157,6.854,3.428h-0.044h0.089v-11.573h6.319v31.78h-6.009V525.564z
			 M320.653,509.63c-4.141,0-5.564,3.562-5.564,7.345c0,3.604,1.647,7.389,5.564,7.389c4.184,0,5.43-3.649,5.43-7.434
			C326.083,513.19,324.748,509.63,320.653,509.63z"/>
		<path d="M341.259,518.531c0.179,4.006,2.136,5.831,5.653,5.831c2.537,0,4.584-1.559,4.984-2.981h5.564
			c-1.781,5.43-5.564,7.744-10.771,7.744c-7.256,0-11.75-4.984-11.75-12.106c0-6.898,4.762-12.15,11.75-12.15
			c7.833,0,11.616,6.588,11.172,13.664L341.259,518.531L341.259,518.531z M351.541,514.525c-0.579-3.204-1.958-4.896-5.03-4.896
			c-4.006,0-5.163,3.116-5.252,4.896H351.541z"/>
		<path d="M360.708,505.49h6.009v3.205h0.133c1.604-2.582,4.362-3.828,7.033-3.828c6.721,0,8.412,3.783,8.412,9.479v14.154h-6.32
			v-12.997c0-3.783-1.112-5.652-4.05-5.652c-3.427,0-4.896,1.913-4.896,6.588v12.063h-6.321V505.49L360.708,505.49z"/>
		<path d="M394.222,505.49h4.629v4.229h-4.629v11.396c0,2.137,0.534,2.67,2.67,2.67c0.667,0,1.291-0.044,1.958-0.178v4.94
			c-1.067,0.178-2.447,0.223-3.693,0.223c-3.873,0-7.255-0.891-7.255-5.475v-13.576h-3.828v-4.229h3.828v-6.898h6.32V505.49
			L394.222,505.49z"/>
		<path d="M401.164,496.722h6.32v31.78h-6.32V496.722z"/>
		<path d="M422.929,531.395c-1.38,3.695-3.561,5.209-7.923,5.209c-1.291,0-2.582-0.09-3.872-0.224v-5.208
			c1.202,0.09,2.448,0.269,3.694,0.223c2.181-0.223,2.893-2.491,2.181-4.315l-8.101-21.588h6.766l5.208,15.757h0.089L426,505.49
			h6.543L422.929,531.395z"/>
		<path d="M93.537,552.852c7.255,0,11.929,4.808,11.929,12.151c0,7.3-4.674,12.106-11.929,12.106
			c-7.211,0-11.884-4.808-11.884-12.106C81.652,557.658,86.326,552.852,93.537,552.852z M93.537,572.347
			c4.317,0,5.608-3.693,5.608-7.344c0-3.694-1.291-7.389-5.608-7.389c-4.273,0-5.564,3.693-5.564,7.389
			C87.973,568.652,89.264,572.347,93.537,572.347z"/>
		<path d="M107.777,553.475h6.009v4.273h0.089c1.157-2.895,4.273-4.896,7.344-4.896c0.445,0,0.979,0.09,1.379,0.224v5.875
			c-0.579-0.133-1.513-0.224-2.27-0.224c-4.629,0-6.231,3.339-6.231,7.39v10.371h-6.321L107.777,553.475L107.777,553.475z"/>
		<path d="M146.322,575.018c0,3.783-1.335,10.192-11.929,10.192c-4.54,0-9.836-2.136-10.148-7.388h6.276
			c0.579,2.357,2.492,3.16,4.718,3.16c3.517,0,5.119-2.404,5.074-5.697v-3.027h-0.089c-1.38,2.404-4.14,3.562-6.899,3.562
			c-6.899,0-9.836-5.252-9.836-11.572c0-5.965,3.427-11.396,9.881-11.396c3.026,0,5.341,1.023,6.854,3.694h0.089v-3.071h6.009
			V575.018z M140.313,564.691c0-3.739-1.291-7.077-5.386-7.077c-3.561,0-5.119,3.116-5.119,6.543c0,3.294,1.246,6.898,5.119,6.898
			C138.533,571.057,140.313,567.984,140.313,564.691z"/>
		<path d="M149.347,560.552c0.356-5.92,5.652-7.7,10.815-7.7c4.585,0,10.104,1.023,10.104,6.543v11.974
			c0,2.092,0.223,4.185,0.801,5.119h-6.41c-0.223-0.712-0.4-1.47-0.445-2.227c-2.003,2.094-4.941,2.85-7.745,2.85
			c-4.362,0-7.833-2.182-7.833-6.898c0-5.208,3.917-6.455,7.833-6.988c3.873-0.578,7.478-0.444,7.478-3.026
			c0-2.715-1.87-3.115-4.095-3.115c-2.403,0-3.961,0.979-4.184,3.472h-6.319V560.552z M163.946,565.225
			c-1.068,0.937-3.294,0.98-5.252,1.336c-1.958,0.4-3.739,1.068-3.739,3.384c0,2.358,1.825,2.938,3.873,2.938
			c4.94,0,5.119-3.916,5.119-5.297L163.946,565.225L163.946,565.225z"/>
		<path d="M174.27,553.475h6.009v3.205h0.133c1.603-2.582,4.362-3.828,7.033-3.828c6.721,0,8.412,3.783,8.412,9.48v14.154h-6.32
			v-12.997c0-3.783-1.113-5.652-4.05-5.652c-3.427,0-4.896,1.913-4.896,6.587v12.063h-6.321V553.475z"/>
		<path d="M205.38,549.914h-6.32v-5.208h6.32V549.914z M199.06,553.475h6.32v23.013h-6.32V553.475z"/>
		<path d="M208.05,571.724l11.973-13.485H208.94v-4.764h19.406v4.764l-11.973,13.485h12.818v4.764H208.05V571.724z"/>
		<path d="M236.892,566.516c0.178,4.006,2.137,5.831,5.652,5.831c2.537,0,4.585-1.558,4.985-2.98h5.563
			c-1.78,5.43-5.563,7.744-10.771,7.744c-7.255,0-11.75-4.984-11.75-12.106c0-6.898,4.763-12.151,11.75-12.151
			c7.834,0,11.617,6.589,11.173,13.664L236.892,566.516L236.892,566.516z M247.173,562.51c-0.578-3.204-1.958-4.896-5.029-4.896
			c-4.006,0-5.163,3.116-5.252,4.896H247.173z"/>
		<path d="M272.766,573.549h-0.09c-1.469,2.492-4.05,3.562-6.987,3.562c-6.944,0-10.327-5.966-10.327-12.329
			c0-6.188,3.428-11.93,10.193-11.93c2.715,0,5.386,1.157,6.854,3.429h-0.045h0.089v-11.573h6.322v31.78h-6.009V573.549
			L272.766,573.549z M267.246,557.614c-4.14,0-5.563,3.561-5.563,7.345c0,3.604,1.646,7.388,5.563,7.388
			c4.184,0,5.43-3.648,5.43-7.433C272.676,561.175,271.341,557.614,267.246,557.614z"/>
		<path d="M301.828,550.582h-9.525v-5.876h26.039v5.876h-9.524v25.904h-6.988L301.828,550.582L301.828,550.582z"/>
		<path d="M321.097,544.706h23.771v5.876h-16.781v6.81h15.4v5.432h-15.4v7.789h17.137v5.875h-24.125L321.097,544.706
			L321.097,544.706z"/>
		<path d="M348.158,544.706h13.709c8.233,0,14.422,5.163,14.422,15.712c0,9.214-4.719,16.068-14.422,16.068h-13.709V544.706
			L348.158,544.706z M355.146,570.611h6.231c4.049,0,7.922-2.492,7.922-9.525c0-6.41-2.225-10.504-9.17-10.504h-4.984
			L355.146,570.611L355.146,570.611z"/>
		<path d="M396.271,566.516c0.178,4.006,2.137,5.831,5.651,5.831c2.537,0,4.584-1.558,4.984-2.98h5.563
			c-1.78,5.43-5.563,7.744-10.771,7.744c-7.256,0-11.75-4.984-11.75-12.106c0-6.898,4.762-12.151,11.75-12.151
			c7.834,0,11.617,6.589,11.172,13.664L396.271,566.516L396.271,566.516z M406.552,562.51c-0.578-3.204-1.959-4.896-5.028-4.896
			c-4.007,0-5.164,3.116-5.252,4.896H406.552z"/>
		<path d="M427.56,576.486h-7.032l-7.879-23.013h6.633l4.852,15.712h0.088l4.853-15.712h6.276L427.56,576.486z"/>
		<path d="M441.4,566.516c0.178,4.006,2.137,5.831,5.651,5.831c2.537,0,4.586-1.558,4.986-2.98h5.563
			c-1.778,5.43-5.563,7.744-10.771,7.744c-7.254,0-11.75-4.984-11.75-12.106c0-6.898,4.764-12.151,11.75-12.151
			c7.834,0,11.617,6.589,11.172,13.664L441.4,566.516L441.4,566.516z M451.681,562.51c-0.578-3.204-1.957-4.896-5.028-4.896
			c-4.006,0-5.162,3.116-5.252,4.896H451.681z"/>
		<path d="M460.849,553.475h6.011v3.205h0.133c1.604-2.582,4.363-3.828,7.033-3.828c6.721,0,8.411,3.783,8.411,9.48v14.154h-6.319
			v-12.997c0-3.783-1.113-5.652-4.051-5.652c-3.429,0-4.896,1.913-4.896,6.587v12.063h-6.32L460.849,553.475L460.849,553.475z"/>
		<path d="M494.363,553.475h4.629v4.229h-4.629v11.395c0,2.138,0.535,2.67,2.672,2.67c0.668,0,1.291-0.044,1.957-0.178v4.941
			c-1.066,0.178-2.447,0.223-3.693,0.223c-3.873,0-7.256-0.891-7.256-5.475v-13.576h-3.828v-4.229h3.828v-6.897h6.32V553.475z"/>
	</g>
</g>
<g>
	<g display="none">
		<path display="inline" fill="#FF2B06" d="M108.981,256.08H79.327v-27.121h91.879v27.121h-29.644v78.695h-32.581V256.08z"/>
		<path display="inline" fill="#FF2B06" d="M176.27,228.959h89.192v27.121h-56.59v13.186h56.59v25.203h-56.59v13.188h56.605v27.12
			H176.27V228.959z"/>
		<path display="inline" fill="#FF2B06" d="M270.949,228.959h53.5c35.266,0,47.729,26.084,47.729,52.753
			c0,32.466-17.19,53.063-54.096,53.063h-47.134L270.949,228.959L270.949,228.959z M303.549,307.656h12.75
			c20.31,0,23.278-16.456,23.278-26.396c0-6.656-2.086-25.179-25.652-25.179h-10.376V307.656z"/>
	</g>
	<g>
		<g>
			<path fill="#FF2B06" d="M724.708,770.486L610.531,581.184L499.209,770.486H225l260.311-382.801L234.658,21.515h274.293
				l101.58,180.987L715.048,21.515h274.211l-250.606,366.17L999,770.486H724.708z"/>
		</g>
	</g>
</g>
<text transform="matrix(1 0 0 1 80.2944 467.292)" display="none" enable-background="new    " font-family="'Helvetica'" font-size="146.9047">SJCBangalore</text>
</svg>
