<?xml version="1.0" encoding="utf-8"?>
<!-- Generator: Adobe Illustrator 16.0.0, SVG Export Plug-In . SVG Version: 6.00 Build 0)  -->
<!DOCTYPE svg PUBLIC "-//W3C//DTD SVG 1.1//EN" "http://www.w3.org/Graphics/SVG/1.1/DTD/svg11.dtd">
<svg version="1.1" id="Layer_1" xmlns="http://www.w3.org/2000/svg" xmlns:xlink="http://www.w3.org/1999/xlink" x="0px" y="0px"
	 width="1020.439px" height="467.059px" viewBox="0 0 1020.439 467.059" enable-background="new 0 0 1020.439 467.059"
	 xml:space="preserve">
<g>
	<g class="sub-text">
		<path fill="#FF2B06" d="M60.371,324.456l-7.567-10.905h7.211l4.05,6.009l4.006-6.009h6.988l-7.567,10.771l8.501,12.24h-7.21
			l-4.807-7.255l-4.807,7.255h-7.077L60.371,324.456z"/>
		<path d="M105.946,322.941H83.468v-4.763h22.478V322.941z M105.946,332.466H83.468v-4.764h22.478V332.466z"/>
		<path d="M123.169,309.989h-6.32v-5.208h6.32V309.989z M116.85,313.549h6.32v23.012h-6.32V313.549z"/>
		<path d="M127.264,313.549h6.009v3.205h0.133c1.603-2.582,4.362-3.828,7.033-3.828c6.721,0,8.412,3.783,8.412,9.479v14.154h-6.32
			v-12.997c0-3.783-1.113-5.652-4.05-5.652c-3.427,0-4.896,1.913-4.896,6.588v12.063h-6.321V313.549z"/>
		<path d="M169.189,333.624h-0.089c-1.469,2.491-4.05,3.561-6.988,3.561c-6.943,0-10.326-5.965-10.326-12.329
			c0-6.187,3.427-11.929,10.193-11.929c2.715,0,5.386,1.157,6.854,3.428h-0.044h0.089v-11.573h6.32v31.78h-6.009V333.624
			L169.189,333.624z M163.67,317.689c-4.14,0-5.564,3.562-5.564,7.345c0,3.604,1.647,7.389,5.564,7.389
			c4.184,0,5.43-3.649,5.43-7.434C169.102,321.25,167.766,317.689,163.67,317.689z"/>
		<path d="M184.276,326.59c0.178,4.006,2.136,5.831,5.653,5.831c2.537,0,4.584-1.559,4.985-2.981h5.564
			c-1.781,5.43-5.564,7.744-10.771,7.744c-7.255,0-11.75-4.984-11.75-12.106c0-6.898,4.762-12.15,11.75-12.15
			c7.833,0,11.617,6.588,11.172,13.664L184.276,326.59L184.276,326.59z M194.559,322.584c-0.579-3.204-1.958-4.896-5.03-4.896
			c-4.006,0-5.163,3.116-5.252,4.896H194.559z"/>
		<path d="M203.726,313.549h6.009v2.938h0.089c1.513-2.446,4.006-3.561,6.854-3.561c7.21,0,10.46,5.831,10.46,12.373
			c0,6.143-3.383,11.885-10.104,11.885c-2.76,0-5.386-1.201-6.899-3.472h-0.089v10.948h-6.321L203.726,313.549L203.726,313.549z
			 M220.817,325.122c0-3.648-1.469-7.433-5.519-7.433c-4.139,0-5.475,3.694-5.475,7.433c0,3.739,1.424,7.301,5.519,7.301
			C219.482,332.421,220.817,328.861,220.817,325.122z"/>
		<path d="M235.236,326.59c0.178,4.006,2.136,5.831,5.653,5.831c2.537,0,4.584-1.559,4.985-2.981h5.564
			c-1.781,5.43-5.564,7.744-10.771,7.744c-7.255,0-11.75-4.984-11.75-12.106c0-6.898,4.762-12.15,11.75-12.15
			c7.833,0,11.617,6.588,11.172,13.664L235.236,326.59L235.236,326.59z M245.519,322.584c-0.579-3.204-1.958-4.896-5.03-4.896
			c-4.006,0-5.163,3.116-5.252,4.896H245.519z"/>
		<path d="M254.686,313.549h6.009v3.205h0.133c1.603-2.582,4.362-3.828,7.033-3.828c6.721,0,8.412,3.783,8.412,9.479v14.154h-6.32
			v-12.997c0-3.783-1.113-5.652-4.05-5.652c-3.427,0-4.896,1.913-4.896,6.588v12.063h-6.321V313.549L254.686,313.549z"/>
		<path d="M296.611,333.624h-0.089c-1.469,2.491-4.05,3.561-6.988,3.561c-6.942,0-10.326-5.965-10.326-12.329
			c0-6.187,3.428-11.929,10.193-11.929c2.715,0,5.386,1.157,6.854,3.428h-0.044h0.089v-11.573h6.319v31.78h-6.009V333.624z
			 M291.093,317.689c-4.141,0-5.564,3.562-5.564,7.345c0,3.604,1.647,7.389,5.564,7.389c4.184,0,5.43-3.649,5.43-7.434
			C296.522,321.25,295.188,317.689,291.093,317.689z"/>
		<path d="M311.698,326.59c0.179,4.006,2.136,5.831,5.653,5.831c2.537,0,4.584-1.559,4.984-2.981h5.564
			c-1.781,5.43-5.564,7.744-10.771,7.744c-7.256,0-11.75-4.984-11.75-12.106c0-6.898,4.762-12.15,11.75-12.15
			c7.833,0,11.616,6.588,11.172,13.664L311.698,326.59L311.698,326.59z M321.98,322.584c-0.579-3.204-1.958-4.896-5.03-4.896
			c-4.006,0-5.163,3.116-5.252,4.896H321.98z"/>
		<path d="M331.147,313.549h6.009v3.205h0.133c1.604-2.582,4.362-3.828,7.033-3.828c6.721,0,8.412,3.783,8.412,9.479v14.154h-6.32
			v-12.997c0-3.783-1.112-5.652-4.05-5.652c-3.427,0-4.896,1.913-4.896,6.588v12.063h-6.321V313.549L331.147,313.549z"/>
		<path d="M364.661,313.549h4.629v4.229h-4.629v11.396c0,2.137,0.534,2.67,2.67,2.67c0.667,0,1.291-0.044,1.958-0.178v4.94
			c-1.067,0.178-2.447,0.223-3.693,0.223c-3.873,0-7.255-0.891-7.255-5.475v-13.576h-3.828v-4.229h3.828v-6.898h6.32V313.549
			L364.661,313.549z"/>
		<path d="M371.604,304.781h6.32v31.78h-6.32V304.781z"/>
		<path d="M393.368,339.454c-1.38,3.695-3.561,5.209-7.923,5.209c-1.291,0-2.582-0.09-3.872-0.224v-5.208
			c1.202,0.09,2.448,0.269,3.694,0.223c2.181-0.223,2.893-2.491,2.181-4.315l-8.101-21.588h6.766l5.208,15.757h0.089l5.029-15.758
			h6.543L393.368,339.454z"/>
		<g>
			<path d="M63.977,362.647c7.255,0,11.929,4.807,11.929,12.151c0,7.3-4.674,12.105-11.929,12.105
				c-7.211,0-11.884-4.807-11.884-12.105C52.091,367.454,56.766,362.647,63.977,362.647z M63.977,382.142
				c4.317,0,5.608-3.694,5.608-7.344c0-3.694-1.291-7.39-5.608-7.39c-4.273,0-5.564,3.694-5.564,7.39
				C58.413,378.448,59.704,382.142,63.977,382.142z"/>
			<path d="M78.216,363.27h6.009v4.273h0.089c1.157-2.895,4.273-4.896,7.344-4.896c0.445,0,0.979,0.089,1.379,0.223v5.875
				c-0.579-0.133-1.513-0.223-2.27-0.223c-4.629,0-6.231,3.338-6.231,7.389v10.371h-6.321L78.216,363.27L78.216,363.27z"/>
			<path d="M116.761,384.813c0,3.783-1.335,10.192-11.929,10.192c-4.54,0-9.836-2.136-10.148-7.389h6.276
				c0.579,2.358,2.492,3.16,4.718,3.16c3.517,0,5.119-2.403,5.074-5.696v-3.027h-0.089c-1.38,2.404-4.14,3.561-6.899,3.561
				c-6.899,0-9.836-5.252-9.836-11.571c0-5.966,3.427-11.396,9.881-11.396c3.026,0,5.341,1.023,6.854,3.694h0.089v-3.071h6.009
				V384.813z M110.752,374.487c0-3.738-1.291-7.077-5.386-7.077c-3.561,0-5.119,3.116-5.119,6.543c0,3.294,1.246,6.899,5.119,6.899
				C108.973,380.852,110.752,377.78,110.752,374.487z"/>
			<path d="M119.787,370.347c0.356-5.92,5.652-7.7,10.815-7.7c4.585,0,10.104,1.023,10.104,6.543v11.974
				c0,2.092,0.223,4.185,0.801,5.118h-6.41c-0.223-0.712-0.4-1.469-0.445-2.226c-2.003,2.093-4.941,2.849-7.745,2.849
				c-4.362,0-7.833-2.181-7.833-6.897c0-5.208,3.917-6.455,7.833-6.988c3.873-0.579,7.478-0.445,7.478-3.026
				c0-2.716-1.87-3.115-4.095-3.115c-2.403,0-3.961,0.979-4.184,3.472h-6.319V370.347z M134.385,375.02
				c-1.068,0.936-3.294,0.98-5.252,1.336c-1.958,0.4-3.739,1.068-3.739,3.383c0,2.359,1.825,2.938,3.873,2.938
				c4.94,0,5.119-3.916,5.119-5.297L134.385,375.02L134.385,375.02z"/>
			<path d="M144.709,363.27h6.009v3.205h0.133c1.603-2.582,4.362-3.828,7.033-3.828c6.721,0,8.412,3.783,8.412,9.48v14.153h-6.32
				v-12.997c0-3.782-1.113-5.651-4.05-5.651c-3.427,0-4.896,1.913-4.896,6.587v12.063h-6.321V363.27z"/>
			<path d="M175.819,359.709h-6.32v-5.208h6.32V359.709z M169.5,363.27h6.32v23.012h-6.32V363.27z"/>
			<path d="M178.489,381.519l11.973-13.486h-11.083v-4.763h19.406v4.763l-11.973,13.486h12.818v4.763h-21.141V381.519z"/>
			<path d="M207.332,376.311c0.178,4.006,2.137,5.831,5.652,5.831c2.537,0,4.585-1.558,4.985-2.981h5.563
				c-1.78,5.431-5.563,7.744-10.771,7.744c-7.255,0-11.75-4.983-11.75-12.105c0-6.899,4.763-12.151,11.75-12.151
				c7.834,0,11.617,6.588,11.173,13.664L207.332,376.311L207.332,376.311z M217.612,372.305c-0.578-3.204-1.958-4.896-5.029-4.896
				c-4.006,0-5.163,3.116-5.252,4.896H217.612z"/>
			<path d="M243.206,383.344h-0.09c-1.469,2.492-4.05,3.561-6.987,3.561c-6.944,0-10.327-5.965-10.327-12.329
				c0-6.187,3.428-11.929,10.193-11.929c2.715,0,5.386,1.157,6.854,3.428h-0.045h0.089v-11.572h6.321v31.779h-6.009L243.206,383.344
				L243.206,383.344z M237.686,367.41c-4.14,0-5.563,3.562-5.563,7.346c0,3.604,1.646,7.388,5.563,7.388
				c4.184,0,5.43-3.649,5.43-7.433C243.115,370.97,241.78,367.41,237.686,367.41z"/>
			<path d="M272.267,360.377h-9.524v-5.876h26.038v5.876h-9.524v25.903h-6.988L272.267,360.377L272.267,360.377z"/>
			<path d="M291.537,354.501h23.77v5.876h-16.78v6.81h15.4v5.431h-15.4v7.789h17.136v5.875h-24.124L291.537,354.501L291.537,354.501
				z"/>
			<path d="M318.598,354.501h13.709c8.233,0,14.421,5.163,14.421,15.712c0,9.214-4.718,16.067-14.421,16.067h-13.709V354.501
				L318.598,354.501z M325.586,380.407h6.23c4.05,0,7.923-2.491,7.923-9.524c0-6.41-2.226-10.504-9.17-10.504h-4.984
				L325.586,380.407L325.586,380.407z"/>
			<path d="M366.711,376.311c0.178,4.006,2.137,5.831,5.651,5.831c2.537,0,4.585-1.558,4.985-2.981h5.563
				c-1.779,5.431-5.563,7.744-10.771,7.744c-7.255,0-11.75-4.983-11.75-12.105c0-6.899,4.763-12.151,11.75-12.151
				c7.834,0,11.617,6.588,11.173,13.664L366.711,376.311L366.711,376.311z M376.991,372.305c-0.578-3.204-1.958-4.896-5.028-4.896
				c-4.007,0-5.163,3.116-5.252,4.896H376.991z"/>
			<path d="M397.999,386.282h-7.032l-7.878-23.012h6.632l4.852,15.712h0.089l4.853-15.712h6.275L397.999,386.282z"/>
			<path d="M411.84,376.311c0.178,4.006,2.137,5.831,5.651,5.831c2.537,0,4.585-1.558,4.985-2.981h5.563
				c-1.779,5.431-5.563,7.744-10.771,7.744c-7.255,0-11.75-4.983-11.75-12.105c0-6.899,4.763-12.151,11.75-12.151
				c7.834,0,11.617,6.588,11.172,13.664L411.84,376.311L411.84,376.311z M422.121,372.305c-0.578-3.204-1.958-4.896-5.028-4.896
				c-4.006,0-5.163,3.116-5.252,4.896H422.121z"/>
			<path d="M431.289,363.27h6.01v3.205h0.134c1.603-2.582,4.362-3.828,7.032-3.828c6.722,0,8.413,3.783,8.413,9.48v14.153h-6.32
				v-12.997c0-3.782-1.113-5.651-4.051-5.651c-3.429,0-4.896,1.913-4.896,6.587v12.063h-6.32L431.289,363.27L431.289,363.27z"/>
			<path d="M464.803,363.27h4.629v4.229h-4.629v11.395c0,2.137,0.534,2.67,2.671,2.67c0.668,0,1.291-0.044,1.958-0.178v4.94
				c-1.067,0.179-2.447,0.224-3.694,0.224c-3.872,0-7.255-0.892-7.255-5.476V367.5h-3.828v-4.229h3.828v-6.897h6.32V363.27z"/>
		</g>
	</g>
</g>
<g>
	<g>
		<path fill="#FF2B06" d="M79.42,64.139H49.767V37.018h91.879v27.121h-29.644v78.695H79.42V64.139z"/>
		<path fill="#FF2B06" d="M146.709,37.018h89.192v27.121h-56.59v13.186h56.59v25.203h-56.59v13.188h56.605v27.12h-89.207V37.018z"/>
		<path fill="#FF2B06" d="M241.389,37.018h53.5c35.266,0,47.729,26.084,47.729,52.753c0,32.466-17.19,53.063-54.096,53.063h-47.134
			L241.389,37.018L241.389,37.018z M273.988,115.715h12.75c20.31,0,23.278-16.456,23.278-26.396c0-6.656-2.086-25.179-25.652-25.179
			h-10.376V115.715z"/>
	</g>
	<g>
		<g>
			<path fill="#FF2B06" d="M389.464,102.058l-9.945-16.492l-9.698,16.492h-23.887l22.677-33.346l-21.835-31.896h23.896l8.849,15.767
				l9.103-15.767h23.889l-21.829,31.896l22.677,33.346H389.464z"/>
		</g>
	</g>
</g>
<text transform="matrix(1 0 0 1 50.7339 275.3511)" font-family="'Helvetica'" font-size="146.9047">SJCBangalore</text>
</svg>
